# xmcd CD database file
#
# Track frame offsets:
#	150
#	22804
#	32257
#	51160
#	68114
#	83417
#	96921
#	118675
#	137428
#	156482
#	173735
#	192338
#	216491
#
# Disc length: 3266 seconds
#
# Revision: 2
# Processed by: cddbd v1.5.1PL2 Copyright (c) Steve Scherf et al.
# Submitted via: CDex 1.51
#
DISCID=a70cc00d
DTITLE=Casbah Club - Venustraphobia
DYEAR=2006
DGENRE=New Age
TTITLE0=Sex change
TTITLE1=Twenty to eleven
TTITLE2=When she sleeps
TTITLE3=Comeback
TTITLE4=Medicine
TTITLE5=Any way she moves
TTITLE6=Venustraphobia
TTITLE7=Ages
TTITLE8=Fly away
TTITLE9=Raised
TTITLE10=Save me from me
TTITLE11=Highness
TTITLE12=Our time
EXTD=YEAR: 2006
EXTT0=
EXTT1=
EXTT2=
EXTT3=
EXTT4=
EXTT5=
EXTT6=
EXTT7=
EXTT8=
EXTT9=
EXTT10=
EXTT11=
EXTT12=
PLAYORDER=
